<svg width="56" height="44" viewBox="0 0 56 44" fill="none" xmlns="http://www.w3.org/2000/svg">
<path d="M24.8273 42.7789C24.0772 43.5288 23.0599 43.95 21.9993 43.95C20.9386 43.95 19.9214 43.5288 19.1713 42.7789L1.17126 24.7789C0.421376 24.0288 0.000115395 23.0115 0.000115395 21.9509C0.000115395 20.8902 0.421376 19.873 1.17126 19.1229L19.1713 1.12286C19.9257 0.394229 20.9361 -0.00894689 21.9849 0.000166422C23.0337 0.00927974 24.0369 0.429957 24.7785 1.17159C25.5202 1.91322 25.9408 2.91647 25.95 3.96526C25.9591 5.01404 25.5559 6.02445 24.8273 6.77886L13.9993 17.9509L51.9993 17.9509C53.0601 17.9509 54.0775 18.3723 54.8277 19.1224C55.5778 19.8726 55.9993 20.89 55.9993 21.9509C55.9993 23.0117 55.5778 24.0291 54.8277 24.7793C54.0775 25.5294 53.0601 25.9509 51.9993 25.9509L13.9993 25.9509L24.8273 37.1229C25.5771 37.873 25.9984 38.8902 25.9984 39.9509C25.9984 41.0115 25.5771 42.0288 24.8273 42.7789Z" fill="#112A46"/>
</svg>
