<svg width="56" height="44" viewBox="0 0 56 44" fill="none" xmlns="http://www.w3.org/2000/svg">
<path d="M31.172 1.172C31.9221 0.422116 32.9393 0.000854492 34 0.000854492C35.0607 0.000854492 36.0779 0.422116 36.828 1.172L54.828 19.172C55.5779 19.9221 55.9991 20.9393 55.9991 22C55.9991 23.0607 55.5779 24.0779 54.828 24.828L36.828 42.828C36.0736 43.5566 35.0632 43.9598 34.0144 43.9507C32.9656 43.9416 31.9624 43.5209 31.2207 42.7793C30.4791 42.0376 30.0584 41.0344 30.0493 39.9856C30.0402 38.9368 30.4434 37.9264 31.172 37.172L42 26H4C2.93913 26 1.92172 25.5786 1.17157 24.8284C0.421427 24.0783 0 23.0609 0 22C0 20.9391 0.421427 19.9217 1.17157 19.1716C1.92172 18.4214 2.93913 18 4 18H42L31.172 6.828C30.4221 6.07789 30.0009 5.06066 30.0009 4C30.0009 2.93934 30.4221 1.92211 31.172 1.172Z" fill="#112A46"/>
</svg>
