<svg width="40" height="40" viewBox="0 0 40 40" fill="none" xmlns="http://www.w3.org/2000/svg">
<g clip-path="url(#clip0_28_203)">
<path d="M39.9104 1.71497C40.0013 1.48781 40.0236 1.23896 39.9744 0.999272C39.9253 0.759581 39.8068 0.539591 39.6338 0.366575C39.4608 0.193559 39.2408 0.0751248 39.0011 0.0259562C38.7614 -0.0232125 38.5126 -0.000953721 38.2854 0.089973L1.91791 14.6375H1.91541L0.78541 15.0875C0.571385 15.1728 0.385123 15.3157 0.247199 15.5003C0.109274 15.6849 0.0250546 15.904 0.0038432 16.1334C-0.0173681 16.3629 0.0252542 16.5937 0.127002 16.8005C0.22875 17.0072 0.385663 17.1818 0.58041 17.305L1.60541 17.955L1.60791 17.96L14.0954 25.905L22.0404 38.3925L22.0454 38.3975L22.6954 39.4225C22.819 39.6165 22.9937 39.7726 23.2002 39.8737C23.4068 39.9748 23.6373 40.017 23.8663 39.9955C24.0953 39.9741 24.3139 39.8898 24.4982 39.7521C24.6824 39.6144 24.825 39.4285 24.9104 39.215L39.9104 1.71497ZM35.3279 6.43997L16.5929 25.175L16.0554 24.33C15.9569 24.1749 15.8255 24.0435 15.6704 23.945L14.8254 23.4075L33.5604 4.67247L36.5054 3.49497L35.3304 6.43997H35.3279Z" fill="#C1D8FB"/>
</g>
<defs>
<clipPath id="clip0_28_203">
<rect width="40" height="40" fill="white"/>
</clipPath>
</defs>
</svg>
