<svg width="30" height="32" viewBox="0 0 30 32" fill="none" xmlns="http://www.w3.org/2000/svg">
<path d="M0.666582 1.19262C1.05654 0.779217 1.58537 0.546978 2.13677 0.546978C2.68818 0.546978 3.217 0.779217 3.60696 1.19262L14.6136 12.8646L25.6203 1.19262C25.8121 0.982007 26.0416 0.814012 26.2953 0.69844C26.549 0.582869 26.8219 0.522037 27.098 0.519492C27.3741 0.516948 27.6479 0.572742 27.9035 0.68362C28.159 0.794499 28.3912 0.95824 28.5865 1.16529C28.7817 1.37234 28.9361 1.61855 29.0407 1.88956C29.1452 2.16057 29.1979 2.45095 29.1955 2.74375C29.1931 3.03655 29.1357 3.32591 29.0267 3.59495C28.9177 3.86399 28.7593 4.10732 28.5607 4.31074L17.554 15.9827L28.5607 27.6547C28.9395 28.0706 29.1491 28.6277 29.1443 29.2059C29.1396 29.784 28.9209 30.3371 28.5354 30.746C28.1498 31.1548 27.6282 31.3868 27.083 31.3918C26.5378 31.3968 26.0125 31.1745 25.6203 30.7729L14.6136 19.1009L3.60696 30.7729C3.21477 31.1745 2.68949 31.3968 2.14426 31.3918C1.59902 31.3868 1.07747 31.1548 0.691913 30.746C0.306361 30.3371 0.0876641 29.784 0.0829262 29.2059C0.0781883 28.6277 0.287789 28.0706 0.666582 27.6547L11.6733 15.9827L0.666582 4.31074C0.276741 3.89721 0.0577393 3.33642 0.0577393 2.75168C0.0577393 2.16695 0.276741 1.60616 0.666582 1.19262Z" fill="white"/>
</svg>
