<svg width="64" height="64" viewBox="0 0 64 64" fill="none" xmlns="http://www.w3.org/2000/svg">
<path d="M32 0.206879C14.4409 0.206879 0.206848 14.4409 0.206848 32C0.206848 49.5591 14.4409 63.7931 32 63.7931C49.559 63.7931 63.7931 49.5591 63.7931 32C63.7931 14.4409 49.559 0.206879 32 0.206879ZM34.905 50.3116H28.9812V44.635H34.905V50.3116ZM34.905 38.5713V40.4481H28.9812V38.1381C28.9812 31.16 36.9218 30.0531 36.9218 25.0941C36.9218 22.8344 34.9028 21.1019 32.2559 21.1019C29.5128 21.1019 27.1065 23.1231 27.1065 23.1231L23.7378 18.9319C23.7378 18.9319 27.0562 15.4625 32.7831 15.4625C38.2212 15.4625 43.2722 18.8313 43.2722 24.51C43.2722 32.455 34.9006 33.3694 34.9006 38.5691L34.905 38.5713Z" fill="#0D459D"/>
<path d="M34.905 51.3116H35.905V50.3116V44.635V43.635H34.905H28.9812H27.9812V44.635V50.3116V51.3116H28.9812H34.905ZM35.905 38.5713V38.3878C35.9494 37.4748 36.3307 36.711 36.9766 35.9365C37.5409 35.2598 38.2452 34.6418 39.0507 33.9348C39.2771 33.7361 39.5115 33.5304 39.753 33.3144C41.8991 31.3951 44.2722 28.9268 44.2722 24.51C44.2722 18.0812 38.5525 14.4625 32.7831 14.4625C29.712 14.4625 27.2832 15.3936 25.6235 16.3251C24.7938 16.7907 24.1532 17.258 23.7154 17.6135C23.4964 17.7914 23.3274 17.9418 23.2103 18.0508C23.1517 18.1053 23.106 18.1496 23.0734 18.1818C23.0672 18.1879 23.0614 18.1936 23.0562 18.1989C23.0477 18.2074 23.0404 18.2148 23.0344 18.2209L23.0223 18.2333L23.0181 18.2376L23.0165 18.2393L23.0158 18.24C23.0154 18.2403 23.0151 18.2407 23.7378 18.9319L23.0151 18.2407L22.4088 18.8746L22.9583 19.5584L26.3271 23.7496L26.9673 24.5461L27.7481 23.8902L27.7485 23.8899L27.749 23.8895L27.7493 23.8892L27.7497 23.8888L27.7498 23.8888L27.7633 23.8778C27.7766 23.867 27.7986 23.8494 27.8287 23.826C27.889 23.7792 27.9814 23.7094 28.1021 23.6243C28.3441 23.4534 28.6954 23.2237 29.1243 22.9942C29.9975 22.5271 31.1161 22.1019 32.2559 22.1019C34.5016 22.1019 35.9218 23.5265 35.9218 25.0941C35.9218 26.0327 35.5572 26.815 34.9071 27.6099C34.3461 28.2957 33.6326 28.9243 32.817 29.6429C32.6445 29.7949 32.4674 29.9509 32.2863 30.1123C30.2758 31.9038 27.9812 34.1839 27.9812 38.1381V40.4481V41.4481H28.9812H34.905H35.905V40.4481V38.5713ZM1.20685 32C1.20685 14.9932 14.9932 1.20688 32 1.20688C49.0068 1.20688 62.7931 14.9932 62.7931 32C62.7931 49.0068 49.0068 62.7931 32 62.7931C14.9932 62.7931 1.20685 49.0068 1.20685 32Z" stroke="#101A78" stroke-opacity="0.8" stroke-width="2"/>
</svg>
